<?xml version="1.0" encoding="UTF-8"?>
<svg id="a" data-name="レイヤー 1" xmlns="http://www.w3.org/2000/svg" viewBox="0 0 512 512">
  <g>
    <path d="M437.12,180.41l-102.45-38.42c-1.89-2.83-5.6-3.97-8.81-2.53-2.87,1.29-4.46,4.25-4.15,7.21-.22,2.24.64,4.44,2.27,5.94l68.5,152.29-78.51-91.84c-2.55-2.98-7.03-3.33-10.01-.78-2.98,2.55-3.33,7.03-.78,10.01l110.73,129.53s.01.01.02.02c.06.07.13.13.19.2.15.16.31.32.47.47.08.07.16.14.24.2.17.14.35.27.53.39.07.05.14.1.21.14.52.32,1.08.57,1.66.75.08.03.17.05.25.07.21.06.42.1.64.14.1.02.2.03.29.05.26.03.53.05.79.06.03,0,.06,0,.1,0,.07,0,.14,0,.2-.01.15,0,.3,0,.46-.02.09,0,.18-.02.27-.04.14-.02.28-.04.42-.07.08-.02.17-.04.25-.05.16-.04.31-.08.47-.13.07-.02.13-.04.2-.06.19-.07.38-.14.57-.22.02-.01.05-.02.07-.03,0,0,.01,0,.02,0,.41-.19.81-.41,1.19-.68.1-.07.2-.16.3-.23.06-.05.13-.1.19-.15,0,0,.02-.02.03-.03.14-.12.27-.25.4-.37.04-.04.08-.08.12-.12.11-.12.21-.24.32-.37.05-.06.1-.12.15-.18.07-.09.14-.19.21-.29.07-.1.14-.19.2-.29.04-.06.07-.12.1-.18.08-.14.16-.28.24-.42.01-.03.02-.05.03-.08.09-.18.17-.36.24-.55.01-.03.02-.06.03-.1.07-.18.13-.36.18-.55.04-.13.06-.27.09-.4.02-.08.04-.17.06-.25.11-.62.13-1.25.07-1.88,0-.05,0-.11-.01-.16-.01-.12-.04-.25-.06-.37-.02-.11-.03-.22-.06-.32-.02-.08-.04-.17-.07-.25-.04-.15-.08-.3-.12-.44-.02-.06-.05-.12-.07-.18-.06-.16-.12-.33-.19-.49,0-.01,0-.02-.01-.04l-82.76-183.99,89.11,33.42c.82.31,1.66.45,2.49.45,2.88,0,5.58-1.76,6.65-4.61,1.38-3.67-.48-7.77-4.16-9.15Z" style="fill: #ff9758;"/>
    <path d="M223.14,244.13c-2.17-3.27-6.58-4.16-9.85-1.99-3.27,2.17-4.16,6.58-1.99,9.85l106.27,160.04-171.34-140.44L301.16,51.14c2.26-3.21,1.48-7.64-1.73-9.9-3.21-2.26-7.64-1.48-9.9,1.73l-156.31,222.41-56.83,7.93c-3.89.54-6.6,4.13-6.05,8.02.5,3.55,3.54,6.12,7.03,6.12.33,0,.66-.02.99-.07l55.32-7.72,211.48,173.35c1.31,1.07,2.91,1.61,4.5,1.61,1.71,0,3.42-.61,4.77-1.84,2.61-2.36,3.1-6.27,1.15-9.2l-132.44-199.45Z" style="fill: #ff9758;"/>
  </g>
  <path d="M442.98,177.25L303.7,38.66s-.07-.06-.11-.09c-.26-.25-.53-.48-.8-.71-.06-.05-.12-.11-.19-.16-.34-.27-.7-.51-1.07-.74-.08-.05-.16-.08-.23-.13-.29-.17-.59-.33-.89-.47-.13-.06-.26-.12-.4-.17-.26-.11-.53-.22-.8-.31-.14-.05-.28-.09-.42-.14-.29-.09-.59-.16-.89-.23-.12-.03-.23-.06-.35-.08-.4-.08-.81-.14-1.22-.17-.01,0-.03,0-.04,0-.44-.04-.89-.04-1.34-.03-.07,0-.14.01-.21.02-.36.02-.72.05-1.08.11-.05,0-.1,0-.15.01l-176.89,27.86c-.1.02-.19.04-.28.06-.13.02-.26.05-.38.08-.24.05-.47.11-.7.18-.12.03-.24.06-.35.1-.32.1-.63.21-.94.34-.12.05-.23.11-.35.16-.2.09-.4.18-.6.29-.13.07-.26.14-.39.21-.18.1-.36.21-.54.32-.12.07-.23.15-.34.22-.23.16-.46.33-.68.51-.05.04-.1.08-.15.12-.25.21-.5.44-.73.67-.08.07-.15.15-.22.23-.17.18-.34.36-.5.55-.07.09-.14.17-.22.26-.16.2-.32.41-.47.63-.05.07-.1.14-.15.21-.19.29-.37.58-.54.88-.04.07-.07.14-.11.21-.12.23-.24.47-.34.71-.06.13-.11.25-.16.38-.08.19-.15.39-.22.58-.05.14-.1.29-.14.44-.06.2-.11.4-.16.6-.03.14-.07.28-.1.42,0,0,0,.02,0,.02l-41.09,205.44c-.46,2.31-.22,4.7.68,6.88l78.61,188.53s.02.05.03.08l.05.11c.07.17.15.33.23.49.1.22.21.43.33.64.1.18.2.36.3.53.07.12.15.23.23.35.11.17.22.33.34.49.08.1.16.21.24.31.14.17.27.33.42.5.07.08.14.17.22.25.19.21.39.4.6.6.03.03.06.06.1.09.24.22.5.43.76.63.07.06.15.11.23.16.19.14.38.27.58.39.1.07.21.13.31.19.18.11.36.21.54.3.11.06.23.12.34.18.2.1.4.19.61.27.1.04.19.09.29.13.29.11.58.21.88.3.13.04.25.07.38.1.19.05.39.1.59.14.14.03.27.05.41.08.21.04.42.06.63.09.12.01.24.03.37.04.32.03.65.04.97.05.01,0,.02,0,.03,0,0,0,0,0,0,0,0,0,0,0,0,0,.01,0,.02,0,.03,0,.36,0,.73-.02,1.09-.05.05,0,.1-.02.14-.02.04,0,.08,0,.13,0l193.6-22.98c3.34-.4,6.35-2.19,8.28-4.94l69.64-98.89s0,0,0,0c.26-.38.51-.78.73-1.19.03-.06.07-.13.1-.19.03-.05.06-.1.08-.15.19-.38.35-.76.5-1.15.02-.04.03-.09.04-.13.15-.41.27-.82.37-1.23.03-.11.05-.23.07-.34.08-.37.14-.74.18-1.11,0-.07.03-.13.03-.2l15.32-161.57c.33-3.52-.93-7.01-3.44-9.51ZM409.15,328.92l-160.45-79.85,69.54-22.05,22.92-81.4-18.48-54.67,99.63,99.13-13.17,138.84ZM131.3,84.87l156.02-24.57,29.06,85.96-17.47,62.06-151.26,47.96-16.35-171.4ZM114.31,156.04l11.18,117.14s0,.05,0,.08l11.35,118.95-47.15-113.07,24.62-123.09ZM343.03,434.96l-176.33,20.93-16.74-175.5,66.28-21.02,185.45,92.29-58.66,83.3Z" style="fill: #ff5b11; isolation: isolate; opacity: .99;"/>
</svg>