<?xml version="1.0" encoding="UTF-8"?>
<svg id="a" data-name="レイヤー 1" xmlns="http://www.w3.org/2000/svg" xmlns:xlink="http://www.w3.org/1999/xlink" viewBox="0 0 512 512">
  <defs>
    <linearGradient id="b" data-name="名称未設定グラデーション 93" x1="267.62" y1="428.02" x2="236.53" y2="380.14" gradientTransform="translate(0 10.21)" gradientUnits="userSpaceOnUse">
      <stop offset="0" stop-color="#333"/>
      <stop offset=".13" stop-color="#4d382e"/>
      <stop offset="1" stop-color="#ff5b11"/>
    </linearGradient>
  </defs>
  <g>
    <g>
      <path d="M382.34,121.98l-71.46-26.8c-1.32-1.98-3.91-2.77-6.15-1.76-2,.9-3.11,2.96-2.89,5.03-.15,1.56.44,3.1,1.59,4.14l47.78,106.22-54.76-64.06c-1.78-2.08-4.91-2.33-6.99-.55-2.08,1.78-2.33,4.91-.55,6.99l77.24,90.35s.01.01.01.02c.04.05.09.09.13.14.11.11.22.22.33.33.06.05.11.1.17.14.12.1.24.19.37.27.05.03.1.07.15.1.36.23.75.4,1.16.52.06.02.12.03.18.05.15.04.3.07.45.1.07.01.14.02.21.03.18.02.37.04.55.04.02,0,.05,0,.07,0,.05,0,.09,0,.14,0,.11,0,.21,0,.32-.02.06,0,.13-.02.19-.02.1-.01.2-.03.29-.05.06-.01.12-.02.17-.04.11-.03.22-.05.33-.09.05-.01.09-.03.14-.04.13-.05.27-.1.4-.15.02,0,.03-.01.05-.02,0,0,0,0,.01,0,.29-.13.56-.29.83-.48.07-.05.14-.11.21-.16.04-.04.09-.07.14-.11,0,0,.01-.01.02-.02.1-.08.19-.17.28-.26.03-.03.06-.06.09-.08.08-.08.15-.17.22-.25.03-.04.07-.08.1-.12.05-.07.1-.14.14-.2.05-.07.1-.13.14-.2.03-.04.05-.08.07-.13.06-.1.11-.2.16-.3,0-.02.02-.04.02-.05.06-.13.12-.25.17-.38,0-.02.01-.04.02-.07.05-.13.09-.25.12-.38.03-.09.04-.19.06-.28.01-.06.03-.12.04-.18.08-.43.09-.87.05-1.31,0-.04,0-.07,0-.11-.01-.09-.03-.17-.04-.26-.01-.08-.02-.15-.04-.23-.01-.06-.03-.12-.05-.17-.03-.1-.05-.21-.09-.31-.01-.04-.03-.08-.05-.13-.04-.11-.08-.23-.13-.34,0,0,0-.02-.01-.03l-57.73-128.34,62.16,23.31c.57.21,1.16.32,1.74.32,2.01,0,3.89-1.23,4.64-3.22.96-2.56-.34-5.42-2.9-6.38Z" style="fill: #ff9758;"/>
      <path d="M233.08,166.43c-1.51-2.28-4.59-2.9-6.87-1.39-2.28,1.51-2.9,4.59-1.39,6.87l74.12,111.63-119.51-97.96L287.5,31.81c1.57-2.24,1.03-5.33-1.2-6.9-2.24-1.57-5.33-1.03-6.9,1.2l-109.03,155.14-39.64,5.53c-2.71.38-4.6,2.88-4.22,5.59.35,2.48,2.47,4.27,4.9,4.27.23,0,.46-.02.69-.05l38.59-5.38,147.52,120.91c.92.75,2.03,1.12,3.14,1.12,1.19,0,2.38-.43,3.32-1.28,1.82-1.64,2.16-4.37.8-6.42l-92.38-139.12Z" style="fill: #ff9758;"/>
    </g>
    <path d="M386.42,119.77l-97.15-96.67s-.05-.04-.07-.06c-.18-.17-.37-.34-.56-.49-.04-.04-.09-.08-.13-.11-.24-.18-.49-.36-.74-.51-.05-.03-.11-.06-.16-.09-.2-.12-.41-.23-.62-.33-.09-.04-.18-.08-.28-.12-.18-.08-.37-.15-.56-.22-.1-.03-.19-.07-.29-.1-.2-.06-.41-.11-.62-.16-.08-.02-.16-.04-.25-.06-.28-.05-.57-.09-.85-.12,0,0-.02,0-.03,0-.31-.02-.62-.03-.94-.02-.05,0-.1,0-.15.01-.25.01-.5.04-.76.07-.03,0-.07,0-.1,0l-123.38,19.43c-.07.01-.13.03-.2.04-.09.02-.18.03-.27.05-.17.04-.33.08-.49.12-.08.02-.16.04-.25.07-.22.07-.44.15-.66.24-.08.03-.16.07-.24.11-.14.06-.28.13-.42.2-.09.05-.18.1-.27.15-.13.07-.25.15-.37.23-.08.05-.16.1-.24.16-.16.11-.32.23-.48.35-.03.03-.07.05-.11.08-.18.15-.35.3-.51.47-.05.05-.1.11-.16.16-.12.12-.23.25-.35.38-.05.06-.1.12-.15.18-.11.14-.22.29-.33.44-.04.05-.07.1-.11.15-.13.2-.26.4-.37.61-.03.05-.05.1-.07.15-.08.16-.17.33-.24.49-.04.09-.07.18-.11.27-.05.13-.1.27-.15.41-.03.1-.07.2-.1.3-.04.14-.08.28-.11.42-.02.1-.05.19-.07.29,0,0,0,.01,0,.02l-28.66,143.3c-.32,1.61-.16,3.28.48,4.8l54.83,131.5s.02.04.02.06l.03.08c.05.12.1.23.16.34.07.15.15.3.23.45.07.13.14.25.21.37.05.08.11.16.16.24.08.12.16.23.24.34.05.07.11.14.17.22.09.12.19.23.29.35.05.06.1.12.15.17.14.14.28.28.42.42.02.02.04.04.07.06.17.15.35.3.53.44.05.04.1.07.16.11.13.1.26.19.4.27.07.05.15.09.22.13.12.07.25.14.38.21.08.04.16.08.24.12.14.07.28.13.42.19.07.03.14.06.21.09.2.08.41.15.61.21.09.03.18.05.27.07.14.04.27.07.41.1.09.02.19.04.28.05.14.02.29.05.44.06.09,0,.17.02.26.03.22.02.45.03.68.03,0,0,.01,0,.02,0,0,0,0,0,0,0,0,0,0,0,0,0,0,0,.02,0,.02,0,.25,0,.51-.01.76-.04.03,0,.07-.01.1-.01.03,0,.06,0,.09,0l135.04-16.03c2.33-.28,4.43-1.53,5.78-3.45l48.58-68.98s0,0,0,0c.18-.26.35-.54.51-.83.02-.04.05-.09.07-.13.02-.04.04-.07.06-.11.13-.26.25-.53.35-.8.01-.03.02-.06.03-.09.1-.28.19-.57.25-.86.02-.08.03-.16.05-.24.05-.26.1-.52.12-.77,0-.05.02-.09.02-.14l10.69-112.7c.23-2.46-.65-4.89-2.4-6.63ZM362.82,225.57l-111.92-55.69,48.51-15.38,15.99-56.78-12.89-38.13,69.49,69.15-9.18,96.84ZM169.02,55.34l108.83-17.14,20.27,59.96-12.19,43.28-105.5,33.45-11.41-119.56ZM157.17,104.98l7.8,81.71s0,.04,0,.05l7.92,82.97-32.89-78.87,17.17-85.86ZM316.7,299.53l-122.99,14.6-11.68-122.42,46.23-14.66,129.36,64.37-40.92,58.1Z" style="fill: #ff5b11; isolation: isolate; opacity: .99;"/>
  </g>
  <g style="isolation: isolate; opacity: .99;">
    <g>
      <path d="M156.09,423.21c-2.04-1.63-3.26-3.94-3.26-6.51,0-4.48,3.66-8.28,8.28-8.28h21.98c5.97,0,10.45-4.48,10.45-10.18s-4.48-10.18-10.45-10.18h-38.54v60.52c0,5.16-4.21,9.36-9.36,9.36s-9.36-4.21-9.36-9.36v-70.97c0-4.07,3.39-7.46,7.46-7.46h51.84c14.93,0,27.14,12.21,27.14,27.55s-10.99,25.92-24.7,27.14l69.24,53.97c4.21,3.26,5.02,8.82,1.76,13.03-2.99,3.94-8.96,4.89-13.03,1.63l-89.46-70.25Z" style="fill: url(#b);"/>
      <path d="M251.62,456.45c-19.81,0-33.65-14.38-33.65-33.52v-4.89c0-19.13,13.84-33.52,33.65-33.52h17.91c19.81,0,33.65,14.38,33.65,33.52v4.89c0,19.13-13.84,33.52-33.65,33.52h-17.91ZM285,418.05c0-9.09-6.38-15.88-15.47-15.88h-17.91c-9.09,0-15.47,6.79-15.47,15.88v4.89c0,9.09,6.38,15.88,15.47,15.88h17.91c9.09,0,15.47-6.79,15.47-15.88v-4.89Z" style="fill: url(#b);"/>
      <path d="M346.2,432.57l-24.83,22.93c-3.66,3.39-9.36,3.26-12.76-.41-3.39-3.66-3.12-9.36.54-12.76l24.15-21.85-69.73-61.74c-3.66-3.39-4.07-9.09-.68-12.76,3.39-3.66,9.09-3.8,12.76-.41l70.55,62.82,24.83-22.93c3.66-3.39,9.36-3.26,12.76.41,3.39,3.66,2.99,9.36-.68,12.76l-24.15,21.85,24.29,21.85c3.66,3.39,3.94,9.09.54,12.76-3.39,3.66-9.09,3.8-12.76.41l-24.83-22.93Z" style="fill: url(#b);"/>
    </g>
  </g>
</svg>