<?xml version="1.0" encoding="UTF-8"?>
<svg id="a" data-name="レイヤー 1" xmlns="http://www.w3.org/2000/svg" viewBox="0 0 512 512">
  <g>
    <path d="M463.43,169.14l-117.33-44c-2.17-3.24-6.41-4.55-10.09-2.9-3.28,1.48-5.1,4.86-4.75,8.26-.25,2.56.73,5.08,2.6,6.8l78.45,174.4-89.91-105.18c-2.92-3.42-8.05-3.82-11.47-.9-3.41,2.92-3.82,8.05-.9,11.47l126.81,148.34s.02.02.02.03c.07.08.14.15.21.22.18.19.35.37.54.54.09.08.19.16.28.23.2.16.4.31.61.45.08.05.16.11.25.16.6.37,1.24.66,1.9.86.1.03.19.05.29.08.24.06.49.12.73.16.11.02.22.04.34.05.3.04.6.06.91.07.04,0,.07,0,.11,0,.08,0,.16,0,.23-.01.17,0,.35-.01.52-.03.1,0,.21-.03.31-.04.16-.02.32-.05.48-.08.1-.02.19-.04.29-.06.18-.04.36-.09.53-.14.08-.02.15-.05.23-.07.22-.07.44-.16.65-.25.03-.01.06-.02.08-.03,0,0,.01,0,.02-.01.47-.21.93-.47,1.36-.78.12-.08.23-.18.34-.27.07-.06.15-.11.22-.17.01,0,.02-.02.03-.03.16-.14.31-.28.45-.43.05-.05.1-.09.14-.14.13-.13.24-.28.36-.42.06-.07.12-.13.17-.2.08-.11.16-.22.24-.34.08-.11.16-.22.23-.33.04-.07.08-.14.12-.21.09-.16.19-.32.27-.49.01-.03.03-.06.04-.09.1-.21.19-.41.27-.63.01-.04.02-.07.04-.11.07-.21.15-.41.2-.63.04-.15.07-.31.1-.46.02-.1.05-.19.06-.29.12-.71.15-1.43.08-2.16,0-.06,0-.12-.01-.18-.02-.14-.05-.29-.07-.43-.02-.12-.04-.25-.06-.37-.02-.1-.05-.19-.08-.29-.04-.17-.09-.34-.14-.51-.02-.07-.05-.14-.08-.21-.07-.19-.14-.38-.22-.56,0-.01-.01-.03-.02-.04l-94.78-210.71,102.05,38.27c.94.35,1.91.52,2.86.52,3.29,0,6.39-2.02,7.62-5.28,1.58-4.21-.55-8.9-4.76-10.47Z" style="fill: #ff9758;"/>
    <path d="M218.37,242.11c-2.49-3.74-7.53-4.76-11.28-2.28-3.74,2.49-4.76,7.53-2.28,11.28l121.7,183.28-196.23-160.84L307.72,21.09c2.58-3.68,1.7-8.75-1.98-11.33-3.68-2.59-8.75-1.7-11.33,1.98l-179.01,254.71-65.09,9.08c-4.45.62-7.55,4.73-6.93,9.18.57,4.07,4.05,7.01,8.05,7.01.37,0,.75-.03,1.13-.08l63.36-8.84,242.2,198.52c1.5,1.23,3.33,1.84,5.16,1.84,1.96,0,3.91-.7,5.46-2.1,2.99-2.7,3.55-7.18,1.32-10.53l-151.67-228.42Z" style="fill: #ff9758;"/>
  </g>
  <path d="M470.13,165.51L310.62,6.8s-.08-.07-.12-.11c-.29-.29-.6-.56-.92-.81-.07-.06-.14-.12-.22-.18-.39-.3-.8-.59-1.22-.84-.09-.05-.18-.1-.27-.15-.33-.19-.67-.38-1.02-.54-.15-.07-.3-.13-.46-.2-.3-.13-.61-.25-.92-.36-.16-.05-.32-.11-.48-.16-.33-.1-.67-.19-1.01-.26-.14-.03-.27-.06-.41-.09-.46-.09-.93-.16-1.4-.2-.02,0-.03,0-.05,0-.51-.04-1.02-.05-1.54-.03-.08,0-.16.01-.24.02-.41.02-.83.06-1.24.12-.06,0-.11,0-.17.02l-202.57,31.9c-.11.02-.22.04-.33.06-.15.03-.29.06-.44.09-.27.06-.54.13-.81.2-.13.04-.27.07-.4.11-.37.12-.73.24-1.08.39-.14.06-.26.12-.4.18-.23.1-.46.21-.69.33-.15.08-.3.16-.44.24-.21.12-.41.24-.61.37-.13.08-.27.17-.39.26-.27.18-.53.38-.78.58-.06.05-.12.09-.17.14-.29.24-.57.5-.84.76-.09.09-.17.18-.25.26-.2.2-.39.41-.57.63-.08.1-.17.2-.25.3-.19.23-.37.47-.54.72-.06.08-.12.16-.17.25-.22.33-.42.66-.61,1.01-.04.08-.08.16-.12.24-.14.27-.27.54-.39.81-.06.14-.12.29-.18.44-.09.22-.17.44-.25.67-.06.17-.11.33-.16.5-.07.23-.13.46-.18.69-.04.16-.08.32-.12.48,0,0,0,.02,0,.03l-47.05,235.27c-.53,2.64-.26,5.39.78,7.88l90.03,215.91s.03.06.04.09l.05.13c.08.19.17.37.26.56.12.25.24.49.37.73.11.21.23.41.35.61.08.14.17.27.26.4.13.19.26.38.39.56.09.12.18.24.27.35.15.19.31.38.48.57.08.09.17.19.25.28.22.24.45.46.69.68.04.03.07.07.11.11.28.25.57.49.87.72.08.06.17.12.26.19.22.16.43.31.66.45.12.08.24.15.36.22.2.12.41.24.62.35.13.07.26.14.39.2.23.11.46.21.7.31.11.05.22.1.34.14.33.13.67.24,1.01.34.14.04.29.08.44.12.22.06.45.11.67.16.15.03.31.06.47.09.24.04.48.07.72.1.14.02.28.04.42.05.37.03.74.05,1.11.05.01,0,.02,0,.04,0,0,0,0,0,0,0,0,0,0,0,0,0,.01,0,.03,0,.04,0,.41,0,.83-.02,1.25-.06.06,0,.11-.02.16-.02.05,0,.1,0,.15,0l221.72-26.32c3.82-.45,7.27-2.51,9.49-5.66l79.75-113.25s0,0,0-.01c.3-.43.58-.89.83-1.36.04-.07.08-.14.12-.22.03-.06.06-.11.09-.17.22-.43.4-.87.57-1.32.02-.05.03-.1.05-.15.17-.46.3-.93.42-1.41.03-.13.06-.26.08-.39.09-.42.16-.85.2-1.27,0-.08.03-.15.04-.23l17.55-185.03c.38-4.04-1.06-8.03-3.94-10.89ZM431.39,339.22l-183.75-91.44,79.64-25.25,26.25-93.23-21.16-62.61,114.1,113.53-15.08,159ZM113.19,59.72l178.68-28.14,33.28,98.44-20.01,71.07-173.22,54.92-18.73-196.3ZM93.73,141.22l12.8,134.15s0,.06,0,.09l13,136.22-54-129.5,28.19-140.96ZM355.67,460.65l-201.93,23.97-19.18-200.99,75.91-24.07,212.38,105.69-67.18,95.4Z" style="fill: #ff5b11; isolation: isolate; opacity: .99;"/>
</svg>